<mxfile host="app.diagrams.net" modified="2023-09-16T16:00:11.916Z" agent="Mozilla/5.0 (Macintosh; Intel Mac OS X 10_15_7) AppleWebKit/537.36 (KHTML, like Gecko) Chrome/116.0.0.0 Safari/537.36" etag="eXZonSKMSr5RRyXhXfj2" version="21.7.4" type="github">
  <diagram id="dlmkm7Lrp8StFqAz9MM0" name="Page-1">
    <mxGraphModel dx="954" dy="503" grid="1" gridSize="10" guides="1" tooltips="1" connect="1" arrows="1" fold="1" page="1" pageScale="1" pageWidth="850" pageHeight="1100" math="0" shadow="0">
      <root>
        <mxCell id="0" />
        <mxCell id="1" parent="0" />
        <mxCell id="K84p2yq64tC9PGGXPPFx-2" value="" style="edgeStyle=orthogonalEdgeStyle;rounded=0;orthogonalLoop=1;jettySize=auto;html=1;" parent="1" source="K84p2yq64tC9PGGXPPFx-5" target="K84p2yq64tC9PGGXPPFx-9" edge="1">
          <mxGeometry relative="1" as="geometry">
            <Array as="points">
              <mxPoint x="415" y="160" />
              <mxPoint x="355" y="160" />
            </Array>
          </mxGeometry>
        </mxCell>
        <mxCell id="K84p2yq64tC9PGGXPPFx-3" value="" style="edgeStyle=orthogonalEdgeStyle;rounded=0;orthogonalLoop=1;jettySize=auto;html=1;entryX=0.45;entryY=-0.017;entryDx=0;entryDy=0;entryPerimeter=0;" parent="1" source="K84p2yq64tC9PGGXPPFx-5" target="K84p2yq64tC9PGGXPPFx-6" edge="1">
          <mxGeometry relative="1" as="geometry">
            <mxPoint x="255" y="100" as="targetPoint" />
            <Array as="points">
              <mxPoint x="415" y="160" />
              <mxPoint x="80" y="160" />
              <mxPoint x="80" y="199" />
            </Array>
          </mxGeometry>
        </mxCell>
        <mxCell id="K84p2yq64tC9PGGXPPFx-4" style="edgeStyle=orthogonalEdgeStyle;rounded=0;orthogonalLoop=1;jettySize=auto;html=1;entryX=0.689;entryY=-0.005;entryDx=0;entryDy=0;entryPerimeter=0;" parent="1" target="K84p2yq64tC9PGGXPPFx-16" edge="1">
          <mxGeometry relative="1" as="geometry">
            <mxPoint x="675" y="100" as="targetPoint" />
            <mxPoint x="415" y="130" as="sourcePoint" />
            <Array as="points">
              <mxPoint x="415" y="160" />
              <mxPoint x="790" y="160" />
              <mxPoint x="790" y="200" />
            </Array>
          </mxGeometry>
        </mxCell>
        <mxCell id="K84p2yq64tC9PGGXPPFx-5" value="Home" style="rounded=0;whiteSpace=wrap;html=1;strokeColor=default;fillColor=default;" parent="1" vertex="1">
          <mxGeometry x="350" y="70" width="120" height="60" as="geometry" />
        </mxCell>
        <mxCell id="K84p2yq64tC9PGGXPPFx-6" value="About&lt;br&gt;[slug: profile]" style="rounded=0;whiteSpace=wrap;html=1;strokeColor=default;fillColor=default;" parent="1" vertex="1">
          <mxGeometry x="20" y="200" width="120" height="90" as="geometry" />
        </mxCell>
        <mxCell id="K84p2yq64tC9PGGXPPFx-23" value="" style="edgeStyle=orthogonalEdgeStyle;rounded=0;orthogonalLoop=1;jettySize=auto;html=1;entryX=0.5;entryY=0;entryDx=0;entryDy=0;" parent="1" target="K84p2yq64tC9PGGXPPFx-7" edge="1">
          <mxGeometry relative="1" as="geometry">
            <mxPoint x="630" y="160" as="sourcePoint" />
            <mxPoint x="630" y="190" as="targetPoint" />
          </mxGeometry>
        </mxCell>
        <mxCell id="K84p2yq64tC9PGGXPPFx-7" value="Gallery&lt;br&gt;[slug: photo-albums]" style="rounded=0;whiteSpace=wrap;html=1;strokeColor=default;fillColor=default;" parent="1" vertex="1">
          <mxGeometry x="570" y="200" width="120" height="90" as="geometry" />
        </mxCell>
        <mxCell id="K84p2yq64tC9PGGXPPFx-9" value="Skating&lt;br&gt;[slug: competitive-history]" style="rounded=0;whiteSpace=wrap;html=1;strokeColor=default;fillColor=default;" parent="1" vertex="1">
          <mxGeometry x="295" y="200" width="120" height="90" as="geometry" />
        </mxCell>
        <mxCell id="K84p2yq64tC9PGGXPPFx-11" value="Press&lt;br&gt;[slug: news]" style="rounded=0;whiteSpace=wrap;html=1;strokeColor=default;fillColor=default;" parent="1" vertex="1">
          <mxGeometry x="160" y="200" width="120" height="90" as="geometry" />
        </mxCell>
        <mxCell id="K84p2yq64tC9PGGXPPFx-12" value="Programs&lt;br&gt;[slug: programs]" style="rounded=0;whiteSpace=wrap;html=1;strokeColor=default;fillColor=default;" parent="1" vertex="1">
          <mxGeometry x="430" y="200" width="120" height="90" as="geometry" />
        </mxCell>
        <mxCell id="K84p2yq64tC9PGGXPPFx-14" value="" style="endArrow=classic;html=1;rounded=0;entryX=0.5;entryY=0;entryDx=0;entryDy=0;" parent="1" target="K84p2yq64tC9PGGXPPFx-12" edge="1">
          <mxGeometry width="50" height="50" relative="1" as="geometry">
            <mxPoint x="490" y="160" as="sourcePoint" />
            <mxPoint x="550" y="110" as="targetPoint" />
          </mxGeometry>
        </mxCell>
        <mxCell id="K84p2yq64tC9PGGXPPFx-15" value="" style="endArrow=classic;html=1;rounded=0;entryX=0.5;entryY=0;entryDx=0;entryDy=0;" parent="1" target="K84p2yq64tC9PGGXPPFx-11" edge="1">
          <mxGeometry width="50" height="50" relative="1" as="geometry">
            <mxPoint x="220" y="160" as="sourcePoint" />
            <mxPoint x="390" y="200" as="targetPoint" />
          </mxGeometry>
        </mxCell>
        <mxCell id="K84p2yq64tC9PGGXPPFx-16" value="Connect&lt;br&gt;[slug: connect-with-camden]" style="rounded=0;whiteSpace=wrap;html=1;strokeColor=default;fillColor=default;" parent="1" vertex="1">
          <mxGeometry x="710" y="200" width="120" height="90" as="geometry" />
        </mxCell>
        <mxCell id="K84p2yq64tC9PGGXPPFx-29" value="notes:&lt;br&gt;separate by season, include thumbnails" style="rounded=0;whiteSpace=wrap;html=1;" parent="1" vertex="1">
          <mxGeometry x="160" y="300" width="120" height="80" as="geometry" />
        </mxCell>
        <mxCell id="K84p2yq64tC9PGGXPPFx-30" value="notes: inconsistent grammar &amp;amp; capitalization" style="rounded=0;whiteSpace=wrap;html=1;" parent="1" vertex="1">
          <mxGeometry x="20" y="300" width="120" height="70" as="geometry" />
        </mxCell>
        <mxCell id="K84p2yq64tC9PGGXPPFx-31" value="notes: improve spacing &amp;amp; bullet points" style="rounded=0;whiteSpace=wrap;html=1;" parent="1" vertex="1">
          <mxGeometry x="295" y="300" width="120" height="60" as="geometry" />
        </mxCell>
        <mxCell id="K84p2yq64tC9PGGXPPFx-32" value="notes: improve spacing, possibly combine with skating page" style="rounded=0;whiteSpace=wrap;html=1;" parent="1" vertex="1">
          <mxGeometry x="430" y="300" width="120" height="80" as="geometry" />
        </mxCell>
        <mxCell id="K84p2yq64tC9PGGXPPFx-33" value="notes: include thumbnails" style="rounded=0;whiteSpace=wrap;html=1;" parent="1" vertex="1">
          <mxGeometry x="570" y="300" width="120" height="60" as="geometry" />
        </mxCell>
        <mxCell id="K84p2yq64tC9PGGXPPFx-34" value="notes: instagram is dead link, facebook preview doesn&#39;t work, shorten twitter preview" style="rounded=0;whiteSpace=wrap;html=1;" parent="1" vertex="1">
          <mxGeometry x="710" y="300" width="120" height="100" as="geometry" />
        </mxCell>
        <mxCell id="K84p2yq64tC9PGGXPPFx-35" value="layout notes: change side menu on larger devices" style="rounded=0;whiteSpace=wrap;html=1;" parent="1" vertex="1">
          <mxGeometry x="480" y="70" width="120" height="60" as="geometry" />
        </mxCell>
        <mxCell id="K84p2yq64tC9PGGXPPFx-36" value="footer notes: add &quot;sponsors&quot; title for sponsor logos, reduce footer size on all devices" style="rounded=0;whiteSpace=wrap;html=1;" parent="1" vertex="1">
          <mxGeometry x="610" y="70" width="180" height="60" as="geometry" />
        </mxCell>
        <mxCell id="K84p2yq64tC9PGGXPPFx-38" value="sitemap &amp;amp; notes for camdenpulkinen.com" style="rounded=0;whiteSpace=wrap;html=1;" parent="1" vertex="1">
          <mxGeometry x="30" y="20" width="240" height="30" as="geometry" />
        </mxCell>
        <mxCell id="4Izk4fXfbhCZGwz3jUpR-1" value="photo notes: use more updated, high-quality images" style="rounded=0;whiteSpace=wrap;html=1;" parent="1" vertex="1">
          <mxGeometry x="220" y="70" width="120" height="60" as="geometry" />
        </mxCell>
        <mxCell id="83X8QgRCImMZWQw5pQyb-28" value="amory&lt;br&gt;" style="shape=umlActor;verticalLabelPosition=bottom;verticalAlign=top;html=1;outlineConnect=0;" vertex="1" parent="1">
          <mxGeometry x="80" y="140" width="10" height="20" as="geometry" />
        </mxCell>
        <mxCell id="83X8QgRCImMZWQw5pQyb-33" value="camden&lt;br&gt;" style="shape=umlActor;verticalLabelPosition=bottom;verticalAlign=top;html=1;outlineConnect=0;" vertex="1" parent="1">
          <mxGeometry x="130" y="140" width="10" height="20" as="geometry" />
        </mxCell>
        <mxCell id="83X8QgRCImMZWQw5pQyb-34" value="y u dans evrywhere" style="ellipse;shape=cloud;whiteSpace=wrap;html=1;align=center;" vertex="1" parent="1">
          <mxGeometry x="20" y="70" width="100" height="45" as="geometry" />
        </mxCell>
        <mxCell id="83X8QgRCImMZWQw5pQyb-35" value="y not&lt;br&gt;" style="ellipse;shape=cloud;whiteSpace=wrap;html=1;align=center;" vertex="1" parent="1">
          <mxGeometry x="140" y="90" width="50" height="40" as="geometry" />
        </mxCell>
        <mxCell id="83X8QgRCImMZWQw5pQyb-36" value="" style="endArrow=none;dashed=1;html=1;dashPattern=1 3;strokeWidth=2;rounded=0;" edge="1" parent="1">
          <mxGeometry width="50" height="50" relative="1" as="geometry">
            <mxPoint x="390" y="210" as="sourcePoint" />
            <mxPoint x="440" y="160" as="targetPoint" />
          </mxGeometry>
        </mxCell>
        <mxCell id="83X8QgRCImMZWQw5pQyb-38" value="" style="endArrow=none;dashed=1;html=1;dashPattern=1 3;strokeWidth=2;rounded=0;entryX=0.42;entryY=0.911;entryDx=0;entryDy=0;entryPerimeter=0;" edge="1" parent="1" target="83X8QgRCImMZWQw5pQyb-34">
          <mxGeometry width="50" height="50" relative="1" as="geometry">
            <mxPoint x="80" y="140" as="sourcePoint" />
            <mxPoint x="50" y="120" as="targetPoint" />
            <Array as="points">
              <mxPoint x="60" y="130" />
            </Array>
          </mxGeometry>
        </mxCell>
        <mxCell id="83X8QgRCImMZWQw5pQyb-39" value="" style="endArrow=none;dashed=1;html=1;dashPattern=1 3;strokeWidth=2;rounded=0;exitX=0.25;exitY=0.1;exitDx=0;exitDy=0;exitPerimeter=0;entryX=0.13;entryY=0.77;entryDx=0;entryDy=0;entryPerimeter=0;" edge="1" parent="1" source="83X8QgRCImMZWQw5pQyb-33" target="83X8QgRCImMZWQw5pQyb-35">
          <mxGeometry width="50" height="50" relative="1" as="geometry">
            <mxPoint x="390" y="210" as="sourcePoint" />
            <mxPoint x="400" y="190" as="targetPoint" />
            <Array as="points" />
          </mxGeometry>
        </mxCell>
      </root>
    </mxGraphModel>
  </diagram>
</mxfile>
